<svg xmlns="http://www.w3.org/2000/svg" xmlns:xlink="http://www.w3.org/1999/xlink" width="1440" zoomAndPan="magnify" viewBox="0 0 1080 749.999995" height="1000" preserveAspectRatio="xMidYMid meet" version="1.0"><defs><filter x="0%" y="0%" width="100%" height="100%" id="8178326bf5"><feColorMatrix values="0 0 0 0 1 0 0 0 0 1 0 0 0 0 1 0 0 0 1 0" color-interpolation-filters="sRGB"/></filter><mask id="8f099be4da"><g filter="url(#8178326bf5)"><rect x="-108" width="1296" fill="#000000" y="-74.999999" height="899.999994" fill-opacity="0.35"/></g></mask><clipPath id="20fa6c883f"><path d="M 0 0 L 540 0 L 540 750 L 0 750 Z M 0 0 " clip-rule="nonzero"/></clipPath><clipPath id="dcfdd10492"><rect x="0" width="540" y="0" height="750"/></clipPath><mask id="5f178e4c52"><g filter="url(#8178326bf5)"><rect x="-108" width="1296" fill="#000000" y="-74.999999" height="899.999994" fill-opacity="0.35"/></g></mask><clipPath id="ea84e20734"><path d="M 0 0 L 539.785156 0 L 539.785156 750 L 0 750 Z M 0 0 " clip-rule="nonzero"/></clipPath><clipPath id="84a9a7ab65"><rect x="0" width="597" y="0" height="750"/></clipPath></defs><rect x="-108" width="1296" fill="#ffffff" y="-74.999999" height="899.999994" fill-opacity="1"/><rect x="-108" width="1296" fill="#0a0626" y="-74.999999" height="899.999994" fill-opacity="1"/><g mask="url(#8f099be4da)"><g transform="matrix(1, 0, 0, 1, 540, -0.000000000000042435)"><g clip-path="url(#dcfdd10492)"><g clip-path="url(#20fa6c883f)"><path fill="#154c9d" d="M 750 60.550781 L 750 58.429688 L 691.570312 58.429688 L 691.570312 0 L 689.449219 0 L 689.449219 58.429688 L 621.457031 58.429688 L 621.457031 0 L 619.335938 0 L 619.335938 58.429688 L 551.34375 58.429688 L 551.34375 0 L 549.222656 0 L 549.222656 58.429688 L 481.230469 58.429688 L 481.230469 0 L 479.109375 0 L 479.109375 58.429688 L 411.117188 58.429688 L 411.117188 0 L 408.996094 0 L 408.996094 58.429688 L 341.003906 58.429688 L 341.003906 0 L 338.882812 0 L 338.882812 58.429688 L 270.890625 58.429688 L 270.890625 0 L 268.769531 0 L 268.769531 58.429688 L 200.777344 58.429688 L 200.777344 0 L 198.65625 0 L 198.65625 58.429688 L 130.664062 58.429688 L 130.664062 0 L 128.542969 0 L 128.542969 58.429688 L 60.550781 58.429688 L 60.550781 0 L 58.429688 0 L 58.429688 58.429688 L 0 58.429688 L 0 60.550781 L 58.429688 60.550781 L 58.429688 128.542969 L 0 128.542969 L 0 130.664062 L 58.429688 130.664062 L 58.429688 198.65625 L 0 198.65625 L 0 200.777344 L 58.429688 200.777344 L 58.429688 268.769531 L 0 268.769531 L 0 270.890625 L 58.429688 270.890625 L 58.429688 338.882812 L 0 338.882812 L 0 341.003906 L 58.429688 341.003906 L 58.429688 408.996094 L 0 408.996094 L 0 411.117188 L 58.429688 411.117188 L 58.429688 479.109375 L 0 479.109375 L 0 481.230469 L 58.429688 481.230469 L 58.429688 549.222656 L 0 549.222656 L 0 551.34375 L 58.429688 551.34375 L 58.429688 619.335938 L 0 619.335938 L 0 621.457031 L 58.429688 621.457031 L 58.429688 689.449219 L 0 689.449219 L 0 691.570312 L 58.429688 691.570312 L 58.429688 750 L 60.550781 750 L 60.550781 691.570312 L 128.542969 691.570312 L 128.542969 750 L 130.664062 750 L 130.664062 691.570312 L 198.65625 691.570312 L 198.65625 750 L 200.777344 750 L 200.777344 691.570312 L 268.769531 691.570312 L 268.769531 750 L 270.890625 750 L 270.890625 691.570312 L 338.882812 691.570312 L 338.882812 750 L 341.003906 750 L 341.003906 691.570312 L 408.996094 691.570312 L 408.996094 750 L 411.117188 750 L 411.117188 691.570312 L 479.109375 691.570312 L 479.109375 750 L 481.230469 750 L 481.230469 691.570312 L 549.222656 691.570312 L 549.222656 750 L 551.34375 750 L 551.34375 691.570312 L 619.335938 691.570312 L 619.335938 750 L 621.457031 750 L 621.457031 691.570312 L 689.449219 691.570312 L 689.449219 750 L 691.570312 750 L 691.570312 691.570312 L 750 691.570312 L 750 689.449219 L 691.570312 689.449219 L 691.570312 621.457031 L 750 621.457031 L 750 619.335938 L 691.570312 619.335938 L 691.570312 551.34375 L 750 551.34375 L 750 549.222656 L 691.570312 549.222656 L 691.570312 481.230469 L 750 481.230469 L 750 479.109375 L 691.570312 479.109375 L 691.570312 411.117188 L 750 411.117188 L 750 408.996094 L 691.570312 408.996094 L 691.570312 341.003906 L 750 341.003906 L 750 338.882812 L 691.570312 338.882812 L 691.570312 270.890625 L 750 270.890625 L 750 268.769531 L 691.570312 268.769531 L 691.570312 200.777344 L 750 200.777344 L 750 198.65625 L 691.570312 198.65625 L 691.570312 130.664062 L 750 130.664062 L 750 128.542969 L 691.570312 128.542969 L 691.570312 60.550781 Z M 619.335938 60.550781 L 619.335938 128.542969 L 551.34375 128.542969 L 551.34375 60.550781 Z M 341.003906 338.882812 L 341.003906 270.890625 L 408.996094 270.890625 L 408.996094 338.882812 Z M 408.996094 341.003906 L 408.996094 408.996094 L 341.003906 408.996094 L 341.003906 341.003906 Z M 338.882812 338.882812 L 270.890625 338.882812 L 270.890625 270.890625 L 338.882812 270.890625 Z M 338.882812 341.003906 L 338.882812 408.996094 L 270.890625 408.996094 L 270.890625 341.003906 Z M 338.882812 411.117188 L 338.882812 479.109375 L 270.890625 479.109375 L 270.890625 411.117188 Z M 341.003906 411.117188 L 408.996094 411.117188 L 408.996094 479.109375 L 341.003906 479.109375 Z M 411.117188 411.117188 L 479.109375 411.117188 L 479.109375 479.109375 L 411.117188 479.109375 Z M 411.117188 408.996094 L 411.117188 341.003906 L 479.109375 341.003906 L 479.109375 408.996094 Z M 411.117188 338.882812 L 411.117188 270.890625 L 479.109375 270.890625 L 479.109375 338.882812 Z M 411.117188 268.769531 L 411.117188 200.777344 L 479.109375 200.777344 L 479.109375 268.769531 Z M 408.996094 268.769531 L 341.003906 268.769531 L 341.003906 200.777344 L 408.996094 200.777344 Z M 338.882812 268.769531 L 270.890625 268.769531 L 270.890625 200.777344 L 338.882812 200.777344 Z M 268.769531 268.769531 L 200.777344 268.769531 L 200.777344 200.777344 L 268.769531 200.777344 Z M 268.769531 270.890625 L 268.769531 338.882812 L 200.777344 338.882812 L 200.777344 270.890625 Z M 268.769531 341.003906 L 268.769531 408.996094 L 200.777344 408.996094 L 200.777344 341.003906 Z M 268.769531 411.117188 L 268.769531 479.109375 L 200.777344 479.109375 L 200.777344 411.117188 Z M 268.769531 481.230469 L 268.769531 549.222656 L 200.777344 549.222656 L 200.777344 481.230469 Z M 270.890625 481.230469 L 338.882812 481.230469 L 338.882812 549.222656 L 270.890625 549.222656 Z M 341.003906 481.230469 L 408.996094 481.230469 L 408.996094 549.222656 L 341.003906 549.222656 Z M 411.117188 481.230469 L 479.109375 481.230469 L 479.109375 549.222656 L 411.117188 549.222656 Z M 481.230469 481.230469 L 549.222656 481.230469 L 549.222656 549.222656 L 481.230469 549.222656 Z M 481.230469 479.109375 L 481.230469 411.117188 L 549.222656 411.117188 L 549.222656 479.109375 Z M 481.230469 408.996094 L 481.230469 341.003906 L 549.222656 341.003906 L 549.222656 408.996094 Z M 481.230469 338.882812 L 481.230469 270.890625 L 549.222656 270.890625 L 549.222656 338.882812 Z M 481.230469 268.769531 L 481.230469 200.777344 L 549.222656 200.777344 L 549.222656 268.769531 Z M 481.230469 198.65625 L 481.230469 130.664062 L 549.222656 130.664062 L 549.222656 198.65625 Z M 479.109375 198.65625 L 411.117188 198.65625 L 411.117188 130.664062 L 479.109375 130.664062 Z M 408.996094 198.65625 L 341.003906 198.65625 L 341.003906 130.664062 L 408.996094 130.664062 Z M 338.882812 198.65625 L 270.890625 198.65625 L 270.890625 130.664062 L 338.882812 130.664062 Z M 268.769531 198.65625 L 200.777344 198.65625 L 200.777344 130.664062 L 268.769531 130.664062 Z M 198.65625 198.65625 L 130.664062 198.65625 L 130.664062 130.664062 L 198.65625 130.664062 Z M 198.65625 200.777344 L 198.65625 268.769531 L 130.664062 268.769531 L 130.664062 200.777344 Z M 198.65625 270.890625 L 198.65625 338.882812 L 130.664062 338.882812 L 130.664062 270.890625 Z M 198.65625 341.003906 L 198.65625 408.996094 L 130.664062 408.996094 L 130.664062 341.003906 Z M 198.65625 411.117188 L 198.65625 479.109375 L 130.664062 479.109375 L 130.664062 411.117188 Z M 198.65625 481.230469 L 198.65625 549.222656 L 130.664062 549.222656 L 130.664062 481.230469 Z M 198.65625 551.34375 L 198.65625 619.335938 L 130.664062 619.335938 L 130.664062 551.34375 Z M 200.777344 551.34375 L 268.769531 551.34375 L 268.769531 619.335938 L 200.777344 619.335938 Z M 270.890625 551.34375 L 338.882812 551.34375 L 338.882812 619.335938 L 270.890625 619.335938 Z M 341.003906 551.34375 L 408.996094 551.34375 L 408.996094 619.335938 L 341.003906 619.335938 Z M 411.117188 551.34375 L 479.109375 551.34375 L 479.109375 619.335938 L 411.117188 619.335938 Z M 481.230469 551.34375 L 549.222656 551.34375 L 549.222656 619.335938 L 481.230469 619.335938 Z M 551.34375 551.34375 L 619.335938 551.34375 L 619.335938 619.335938 L 551.34375 619.335938 Z M 551.34375 549.222656 L 551.34375 481.230469 L 619.335938 481.230469 L 619.335938 549.222656 Z M 551.34375 479.109375 L 551.34375 411.117188 L 619.335938 411.117188 L 619.335938 479.109375 Z M 551.34375 408.996094 L 551.34375 341.003906 L 619.335938 341.003906 L 619.335938 408.996094 Z M 551.34375 338.882812 L 551.34375 270.890625 L 619.335938 270.890625 L 619.335938 338.882812 Z M 551.34375 268.769531 L 551.34375 200.777344 L 619.335938 200.777344 L 619.335938 268.769531 Z M 551.34375 198.65625 L 551.34375 130.664062 L 619.335938 130.664062 L 619.335938 198.65625 Z M 549.222656 60.550781 L 549.222656 128.542969 L 481.230469 128.542969 L 481.230469 60.550781 Z M 479.109375 60.550781 L 479.109375 128.542969 L 411.117188 128.542969 L 411.117188 60.550781 Z M 408.996094 60.550781 L 408.996094 128.542969 L 341.003906 128.542969 L 341.003906 60.550781 Z M 338.882812 60.550781 L 338.882812 128.542969 L 270.890625 128.542969 L 270.890625 60.550781 Z M 268.769531 60.550781 L 268.769531 128.542969 L 200.777344 128.542969 L 200.777344 60.550781 Z M 198.65625 60.550781 L 198.65625 128.542969 L 130.664062 128.542969 L 130.664062 60.550781 Z M 60.550781 60.550781 L 128.542969 60.550781 L 128.542969 128.542969 L 60.550781 128.542969 Z M 60.550781 130.664062 L 128.542969 130.664062 L 128.542969 198.65625 L 60.550781 198.65625 Z M 60.550781 200.777344 L 128.542969 200.777344 L 128.542969 268.769531 L 60.550781 268.769531 Z M 60.550781 270.890625 L 128.542969 270.890625 L 128.542969 338.882812 L 60.550781 338.882812 Z M 60.550781 341.003906 L 128.542969 341.003906 L 128.542969 408.996094 L 60.550781 408.996094 Z M 60.550781 411.117188 L 128.542969 411.117188 L 128.542969 479.109375 L 60.550781 479.109375 Z M 60.550781 481.230469 L 128.542969 481.230469 L 128.542969 549.222656 L 60.550781 549.222656 Z M 60.550781 551.34375 L 128.542969 551.34375 L 128.542969 619.335938 L 60.550781 619.335938 Z M 60.550781 689.449219 L 60.550781 621.457031 L 128.542969 621.457031 L 128.542969 689.449219 Z M 130.664062 689.449219 L 130.664062 621.457031 L 198.65625 621.457031 L 198.65625 689.449219 Z M 200.777344 689.449219 L 200.777344 621.457031 L 268.769531 621.457031 L 268.769531 689.449219 Z M 270.890625 689.449219 L 270.890625 621.457031 L 338.882812 621.457031 L 338.882812 689.449219 Z M 341.003906 689.449219 L 341.003906 621.457031 L 408.996094 621.457031 L 408.996094 689.449219 Z M 411.117188 689.449219 L 411.117188 621.457031 L 479.109375 621.457031 L 479.109375 689.449219 Z M 481.230469 689.449219 L 481.230469 621.457031 L 549.222656 621.457031 L 549.222656 689.449219 Z M 551.34375 689.449219 L 551.34375 621.457031 L 619.335938 621.457031 L 619.335938 689.449219 Z M 689.449219 689.449219 L 621.457031 689.449219 L 621.457031 621.457031 L 689.449219 621.457031 Z M 689.449219 619.335938 L 621.457031 619.335938 L 621.457031 551.34375 L 689.449219 551.34375 Z M 689.449219 549.222656 L 621.457031 549.222656 L 621.457031 481.230469 L 689.449219 481.230469 Z M 689.449219 479.109375 L 621.457031 479.109375 L 621.457031 411.117188 L 689.449219 411.117188 Z M 689.449219 408.996094 L 621.457031 408.996094 L 621.457031 341.003906 L 689.449219 341.003906 Z M 689.449219 338.882812 L 621.457031 338.882812 L 621.457031 270.890625 L 689.449219 270.890625 Z M 689.449219 268.769531 L 621.457031 268.769531 L 621.457031 200.777344 L 689.449219 200.777344 Z M 689.449219 198.65625 L 621.457031 198.65625 L 621.457031 130.664062 L 689.449219 130.664062 Z M 689.449219 128.542969 L 621.457031 128.542969 L 621.457031 60.550781 L 689.449219 60.550781 Z M 689.449219 128.542969 " fill-opacity="1" fill-rule="nonzero"/></g></g></g></g><g mask="url(#5f178e4c52)"><g transform="matrix(1, 0, 0, 1, 0, -0.000000000000042435)"><g clip-path="url(#84a9a7ab65)"><g clip-path="url(#ea84e20734)"><path fill="#154c9d" d="M -153.214844 60.550781 L -153.214844 58.429688 L -94.789062 58.429688 L -94.789062 0 L -92.664062 0 L -92.664062 58.429688 L -24.675781 58.429688 L -24.675781 0 L -22.550781 0 L -22.550781 58.429688 L 45.4375 58.429688 L 45.4375 0 L 47.5625 0 L 47.5625 58.429688 L 115.550781 58.429688 L 115.550781 0 L 117.675781 0 L 117.675781 58.429688 L 185.664062 58.429688 L 185.664062 0 L 187.789062 0 L 187.789062 58.429688 L 255.777344 58.429688 L 255.777344 0 L 257.902344 0 L 257.902344 58.429688 L 325.890625 58.429688 L 325.890625 0 L 328.015625 0 L 328.015625 58.429688 L 396.003906 58.429688 L 396.003906 0 L 398.128906 0 L 398.128906 58.429688 L 466.117188 58.429688 L 466.117188 0 L 468.242188 0 L 468.242188 58.429688 L 536.230469 58.429688 L 536.230469 0 L 538.355469 0 L 538.355469 58.429688 L 596.785156 58.429688 L 596.785156 60.550781 L 538.355469 60.550781 L 538.355469 128.542969 L 596.785156 128.542969 L 596.785156 130.664062 L 538.355469 130.664062 L 538.355469 198.65625 L 596.785156 198.65625 L 596.785156 200.777344 L 538.355469 200.777344 L 538.355469 268.769531 L 596.785156 268.769531 L 596.785156 270.890625 L 538.355469 270.890625 L 538.355469 338.882812 L 596.785156 338.882812 L 596.785156 341.003906 L 538.355469 341.003906 L 538.355469 408.996094 L 596.785156 408.996094 L 596.785156 411.117188 L 538.355469 411.117188 L 538.355469 479.109375 L 596.785156 479.109375 L 596.785156 481.230469 L 538.355469 481.230469 L 538.355469 549.222656 L 596.785156 549.222656 L 596.785156 551.34375 L 538.355469 551.34375 L 538.355469 619.335938 L 596.785156 619.335938 L 596.785156 621.457031 L 538.355469 621.457031 L 538.355469 689.449219 L 596.785156 689.449219 L 596.785156 691.570312 L 538.355469 691.570312 L 538.355469 750 L 536.230469 750 L 536.230469 691.570312 L 468.242188 691.570312 L 468.242188 750 L 466.117188 750 L 466.117188 691.570312 L 398.128906 691.570312 L 398.128906 750 L 396.003906 750 L 396.003906 691.570312 L 328.015625 691.570312 L 328.015625 750 L 325.890625 750 L 325.890625 691.570312 L 257.902344 691.570312 L 257.902344 750 L 255.777344 750 L 255.777344 691.570312 L 187.789062 691.570312 L 187.789062 750 L 185.664062 750 L 185.664062 691.570312 L 117.675781 691.570312 L 117.675781 750 L 115.550781 750 L 115.550781 691.570312 L 47.5625 691.570312 L 47.5625 750 L 45.4375 750 L 45.4375 691.570312 L -22.550781 691.570312 L -22.550781 750 L -24.675781 750 L -24.675781 691.570312 L -92.664062 691.570312 L -92.664062 750 L -94.789062 750 L -94.789062 691.570312 L -153.214844 691.570312 L -153.214844 689.449219 L -94.789062 689.449219 L -94.789062 621.457031 L -153.214844 621.457031 L -153.214844 619.335938 L -94.789062 619.335938 L -94.789062 551.34375 L -153.214844 551.34375 L -153.214844 549.222656 L -94.789062 549.222656 L -94.789062 481.230469 L -153.214844 481.230469 L -153.214844 479.109375 L -94.789062 479.109375 L -94.789062 411.117188 L -153.214844 411.117188 L -153.214844 408.996094 L -94.789062 408.996094 L -94.789062 341.003906 L -153.214844 341.003906 L -153.214844 338.882812 L -94.789062 338.882812 L -94.789062 270.890625 L -153.214844 270.890625 L -153.214844 268.769531 L -94.789062 268.769531 L -94.789062 200.777344 L -153.214844 200.777344 L -153.214844 198.65625 L -94.789062 198.65625 L -94.789062 130.664062 L -153.214844 130.664062 L -153.214844 128.542969 L -94.789062 128.542969 L -94.789062 60.550781 Z M -22.550781 60.550781 L -22.550781 128.542969 L 45.4375 128.542969 L 45.4375 60.550781 Z M 255.777344 338.882812 L 255.777344 270.890625 L 187.789062 270.890625 L 187.789062 338.882812 Z M 187.789062 341.003906 L 187.789062 408.996094 L 255.777344 408.996094 L 255.777344 341.003906 Z M 257.902344 338.882812 L 325.890625 338.882812 L 325.890625 270.890625 L 257.902344 270.890625 Z M 257.902344 341.003906 L 257.902344 408.996094 L 325.890625 408.996094 L 325.890625 341.003906 Z M 257.902344 411.117188 L 257.902344 479.109375 L 325.890625 479.109375 L 325.890625 411.117188 Z M 255.777344 411.117188 L 187.789062 411.117188 L 187.789062 479.109375 L 255.777344 479.109375 Z M 185.664062 411.117188 L 117.675781 411.117188 L 117.675781 479.109375 L 185.664062 479.109375 Z M 185.664062 408.996094 L 185.664062 341.003906 L 117.675781 341.003906 L 117.675781 408.996094 Z M 185.664062 338.882812 L 185.664062 270.890625 L 117.675781 270.890625 L 117.675781 338.882812 Z M 185.664062 268.769531 L 185.664062 200.777344 L 117.675781 200.777344 L 117.675781 268.769531 Z M 187.789062 268.769531 L 255.777344 268.769531 L 255.777344 200.777344 L 187.789062 200.777344 Z M 257.902344 268.769531 L 325.890625 268.769531 L 325.890625 200.777344 L 257.902344 200.777344 Z M 328.015625 268.769531 L 396.003906 268.769531 L 396.003906 200.777344 L 328.015625 200.777344 Z M 328.015625 270.890625 L 328.015625 338.882812 L 396.003906 338.882812 L 396.003906 270.890625 Z M 328.015625 341.003906 L 328.015625 408.996094 L 396.003906 408.996094 L 396.003906 341.003906 Z M 328.015625 411.117188 L 328.015625 479.109375 L 396.003906 479.109375 L 396.003906 411.117188 Z M 328.015625 481.230469 L 328.015625 549.222656 L 396.003906 549.222656 L 396.003906 481.230469 Z M 325.890625 481.230469 L 257.902344 481.230469 L 257.902344 549.222656 L 325.890625 549.222656 Z M 255.777344 481.230469 L 187.789062 481.230469 L 187.789062 549.222656 L 255.777344 549.222656 Z M 185.664062 481.230469 L 117.675781 481.230469 L 117.675781 549.222656 L 185.664062 549.222656 Z M 115.550781 481.230469 L 47.5625 481.230469 L 47.5625 549.222656 L 115.550781 549.222656 Z M 115.550781 479.109375 L 115.550781 411.117188 L 47.5625 411.117188 L 47.5625 479.109375 Z M 115.550781 408.996094 L 115.550781 341.003906 L 47.5625 341.003906 L 47.5625 408.996094 Z M 115.550781 338.882812 L 115.550781 270.890625 L 47.5625 270.890625 L 47.5625 338.882812 Z M 115.550781 268.769531 L 115.550781 200.777344 L 47.5625 200.777344 L 47.5625 268.769531 Z M 115.550781 198.65625 L 115.550781 130.664062 L 47.5625 130.664062 L 47.5625 198.65625 Z M 117.675781 198.65625 L 185.664062 198.65625 L 185.664062 130.664062 L 117.675781 130.664062 Z M 187.789062 198.65625 L 255.777344 198.65625 L 255.777344 130.664062 L 187.789062 130.664062 Z M 257.902344 198.65625 L 325.890625 198.65625 L 325.890625 130.664062 L 257.902344 130.664062 Z M 328.015625 198.65625 L 396.003906 198.65625 L 396.003906 130.664062 L 328.015625 130.664062 Z M 398.128906 198.65625 L 466.117188 198.65625 L 466.117188 130.664062 L 398.128906 130.664062 Z M 398.128906 200.777344 L 398.128906 268.769531 L 466.117188 268.769531 L 466.117188 200.777344 Z M 398.128906 270.890625 L 398.128906 338.882812 L 466.117188 338.882812 L 466.117188 270.890625 Z M 398.128906 341.003906 L 398.128906 408.996094 L 466.117188 408.996094 L 466.117188 341.003906 Z M 398.128906 411.117188 L 398.128906 479.109375 L 466.117188 479.109375 L 466.117188 411.117188 Z M 398.128906 481.230469 L 398.128906 549.222656 L 466.117188 549.222656 L 466.117188 481.230469 Z M 398.128906 551.34375 L 398.128906 619.335938 L 466.117188 619.335938 L 466.117188 551.34375 Z M 396.003906 551.34375 L 328.015625 551.34375 L 328.015625 619.335938 L 396.003906 619.335938 Z M 325.890625 551.34375 L 257.902344 551.34375 L 257.902344 619.335938 L 325.890625 619.335938 Z M 255.777344 551.34375 L 187.789062 551.34375 L 187.789062 619.335938 L 255.777344 619.335938 Z M 185.664062 551.34375 L 117.675781 551.34375 L 117.675781 619.335938 L 185.664062 619.335938 Z M 115.550781 551.34375 L 47.5625 551.34375 L 47.5625 619.335938 L 115.550781 619.335938 Z M 45.4375 551.34375 L -22.550781 551.34375 L -22.550781 619.335938 L 45.4375 619.335938 Z M 45.4375 549.222656 L 45.4375 481.230469 L -22.550781 481.230469 L -22.550781 549.222656 Z M 45.4375 479.109375 L 45.4375 411.117188 L -22.550781 411.117188 L -22.550781 479.109375 Z M 45.4375 408.996094 L 45.4375 341.003906 L -22.550781 341.003906 L -22.550781 408.996094 Z M 45.4375 338.882812 L 45.4375 270.890625 L -22.550781 270.890625 L -22.550781 338.882812 Z M 45.4375 268.769531 L 45.4375 200.777344 L -22.550781 200.777344 L -22.550781 268.769531 Z M 45.4375 198.65625 L 45.4375 130.664062 L -22.550781 130.664062 L -22.550781 198.65625 Z M 47.5625 60.550781 L 47.5625 128.542969 L 115.550781 128.542969 L 115.550781 60.550781 Z M 117.675781 60.550781 L 117.675781 128.542969 L 185.664062 128.542969 L 185.664062 60.550781 Z M 187.789062 60.550781 L 187.789062 128.542969 L 255.777344 128.542969 L 255.777344 60.550781 Z M 257.902344 60.550781 L 257.902344 128.542969 L 325.890625 128.542969 L 325.890625 60.550781 Z M 328.015625 60.550781 L 328.015625 128.542969 L 396.003906 128.542969 L 396.003906 60.550781 Z M 398.128906 60.550781 L 398.128906 128.542969 L 466.117188 128.542969 L 466.117188 60.550781 Z M 536.230469 60.550781 L 468.242188 60.550781 L 468.242188 128.542969 L 536.230469 128.542969 Z M 536.230469 130.664062 L 468.242188 130.664062 L 468.242188 198.65625 L 536.230469 198.65625 Z M 536.230469 200.777344 L 468.242188 200.777344 L 468.242188 268.769531 L 536.230469 268.769531 Z M 536.230469 270.890625 L 468.242188 270.890625 L 468.242188 338.882812 L 536.230469 338.882812 Z M 536.230469 341.003906 L 468.242188 341.003906 L 468.242188 408.996094 L 536.230469 408.996094 Z M 536.230469 411.117188 L 468.242188 411.117188 L 468.242188 479.109375 L 536.230469 479.109375 Z M 536.230469 481.230469 L 468.242188 481.230469 L 468.242188 549.222656 L 536.230469 549.222656 Z M 536.230469 551.34375 L 468.242188 551.34375 L 468.242188 619.335938 L 536.230469 619.335938 Z M 536.230469 689.449219 L 536.230469 621.457031 L 468.242188 621.457031 L 468.242188 689.449219 Z M 466.117188 689.449219 L 466.117188 621.457031 L 398.128906 621.457031 L 398.128906 689.449219 Z M 396.003906 689.449219 L 396.003906 621.457031 L 328.015625 621.457031 L 328.015625 689.449219 Z M 325.890625 689.449219 L 325.890625 621.457031 L 257.902344 621.457031 L 257.902344 689.449219 Z M 255.777344 689.449219 L 255.777344 621.457031 L 187.789062 621.457031 L 187.789062 689.449219 Z M 185.664062 689.449219 L 185.664062 621.457031 L 117.675781 621.457031 L 117.675781 689.449219 Z M 115.550781 689.449219 L 115.550781 621.457031 L 47.5625 621.457031 L 47.5625 689.449219 Z M 45.4375 689.449219 L 45.4375 621.457031 L -22.550781 621.457031 L -22.550781 689.449219 Z M -92.664062 689.449219 L -24.675781 689.449219 L -24.675781 621.457031 L -92.664062 621.457031 Z M -92.664062 619.335938 L -24.675781 619.335938 L -24.675781 551.34375 L -92.664062 551.34375 Z M -92.664062 549.222656 L -24.675781 549.222656 L -24.675781 481.230469 L -92.664062 481.230469 Z M -92.664062 479.109375 L -24.675781 479.109375 L -24.675781 411.117188 L -92.664062 411.117188 Z M -92.664062 408.996094 L -24.675781 408.996094 L -24.675781 341.003906 L -92.664062 341.003906 Z M -92.664062 338.882812 L -24.675781 338.882812 L -24.675781 270.890625 L -92.664062 270.890625 Z M -92.664062 268.769531 L -24.675781 268.769531 L -24.675781 200.777344 L -92.664062 200.777344 Z M -92.664062 198.65625 L -24.675781 198.65625 L -24.675781 130.664062 L -92.664062 130.664062 Z M -92.664062 128.542969 L -24.675781 128.542969 L -24.675781 60.550781 L -92.664062 60.550781 Z M -92.664062 128.542969 " fill-opacity="1" fill-rule="nonzero"/></g></g></g></g></svg>